<?xml version="1.0" encoding="UTF-8"?>
<svg id="a" data-name="Layer_1" xmlns="http://www.w3.org/2000/svg" viewBox="0 0 612.37 110.18">
  <defs>
    <style>
      .b {
        fill: none;
      }

      .c {
        fill: #4c4b4c;
      }
    </style>
  </defs>
  <g>
    <path class="c" d="M33.63,34.39v18.87h-14.15v27.39c0,5.48,2.74,8.22,6.7,8.22h7.46v19.48h-10.2c-17.96,0-23.44-10.65-23.44-27.09V14.61h19.48v19.78h14.15Z"/>
    <path class="c" d="M38.5,108.35V1.83h19.48v38.2h.3c4.26-5.93,9.89-7.46,16.74-7.46,12.17,0,24.65,8.52,24.65,24.65v51.13h-19.48v-44.44c0-7.61-3.96-11.87-11.11-11.87s-11.11,4.26-11.11,11.87v44.44h-19.48Z"/>
    <path class="c" d="M182.62,77c-3.65,19.94-19.02,33.17-39.87,33.17-22.98,0-37.44-17.65-37.44-38.8s14.46-38.81,37.44-38.81c19.78,0,31.04,10.65,35.91,21.91l-37.59,28.15-9.44-12.33,19.33-14.91c-1.98-2.28-5.48-3.35-9.59-3.35-9.59,0-16.59,8.67-16.59,19.33,0,9.13,7.15,19.33,18.72,19.33,9.74,0,17.8-5.93,19.48-15.83l19.63,2.13Z"/>
    <path class="c" d="M223.86,108.35V34.09c0-16.74,5.93-32.26,26.94-32.26h7.76v19.48h-7.61c-4.72,0-7.61,1.83-7.61,7.46v5.63h15.22v18.87h-15.22v55.09h-19.48Z"/>
    <path class="c" d="M312.58,108.35v-41.7c0-8.83-6.7-14.61-17.35-14.61-9.28,0-16.44,8.52-16.44,19.33,0,9.89,7.15,17.8,17.04,17.8,4.26,0,7.46-.91,11.11-2.28v20.24c-4.41,1.07-8.37,1.83-12.33,1.83-22.83,0-35.3-17.5-35.3-36.83,0-23.74,15.83-39.57,36.22-39.57,22.22,0,36.52,14,36.52,33.17v42.61h-19.48Z"/>
    <path class="c" d="M340.89,108.35v-51.13c0-16.13,12.17-24.65,30.28-24.65,7.91,0,16.59,5.02,22.07,11.26,6.39-7.61,14.3-11.26,23.43-11.26,14.61,0,28,8.52,28,24.65v51.13h-20.39v-44.44c0-7.61-3.5-12.02-10.65-11.87-3.65,0-7.91,1.83-10.65,6.85v49.46h-20.39v-44.44c0-7.61-3.5-11.87-10.65-11.87s-10.65,4.26-10.65,11.87v44.44h-20.39Z"/>
    <path class="c" d="M474.96,12.33c0,7.91-5.02,12.33-11.57,12.33s-11.57-4.41-11.57-12.33,5.02-12.33,11.57-12.33,11.57,4.41,11.57,12.33ZM453.66,108.35V34.39h19.48v73.96h-19.48Z"/>
    <path class="c" d="M481.96,108.35V1.83h19.48v106.52h-19.48Z"/>
    <path class="c" d="M531.57,12.33c0,7.91-5.02,12.33-11.57,12.33s-11.57-4.41-11.57-12.33,5.02-12.33,11.57-12.33,11.57,4.41,11.57,12.33ZM510.26,108.35V34.39h19.48v73.96h-19.48Z"/>
    <path class="c" d="M612.37,77c-3.65,19.94-19.02,33.17-39.87,33.17-22.98,0-37.44-17.65-37.44-38.8s14.46-38.81,37.44-38.81c19.78,0,31.04,10.65,35.91,21.91l-37.59,28.15-9.43-12.33,19.33-14.91c-1.98-2.28-5.48-3.35-9.59-3.35-9.59,0-16.59,8.67-16.59,19.33,0,9.13,7.15,19.33,18.72,19.33,9.74,0,17.8-5.93,19.48-15.83l19.63,2.13Z"/>
  </g>
  <rect class="b" width="612.37" height="110.18"/>
  <rect class="b" width="612.37" height="110.18"/>
</svg>